<svg width="153" height="45" viewBox="0 0 153 45" fill="none" xmlns="http://www.w3.org/2000/svg">
<path fill-rule="evenodd" clip-rule="evenodd" d="M16.0058 17.0246C21.5256 17.0213 25.9992 12.5456 25.9992 7.02504V6.3584H11.3331C8.38772 6.3584 6 8.74612 6 11.6915C6 14.6358 8.38597 17.0229 11.3299 17.0246C8.38598 17.0264 6 19.4134 6 22.3578C6 25.3032 8.38772 27.6909 11.3331 27.6909L15.9996 27.6909C10.477 27.6909 6 32.1678 6 37.6905V38.3571H20.6661C23.6115 38.3571 25.9992 35.9694 25.9992 33.024C25.9992 30.0786 23.6115 27.6909 20.6661 27.6909C23.6115 27.6909 25.9992 25.3032 25.9992 22.3578C25.9992 19.4124 23.6115 17.0246 20.6661 17.0246H16.0058ZM37.9826 6.35845C32.837 6.35845 28.6656 10.5298 28.6656 15.6755V17.6897L28.6656 17.7095L28.6653 17.7096L28.6967 38.3578C33.8423 38.35 38.0073 34.1723 37.9995 29.0266L37.9964 27.0124C37.9962 26.8453 37.9915 26.6793 37.9826 26.5144V6.35845Z" fill="black"/>
<path d="M61.082 31.6748C59.8242 31.6748 58.6914 31.4756 57.6836 31.0771C56.6836 30.6787 55.832 30.1006 55.1289 29.3428C54.4258 28.5771 53.8867 27.6514 53.5117 26.5654C53.1367 25.4717 52.9492 24.2373 52.9492 22.8623V22.8506C52.9492 21.0381 53.2773 19.4834 53.9336 18.1865C54.5898 16.8818 55.5195 15.8818 56.7227 15.1865C57.9336 14.4834 59.3633 14.1318 61.0117 14.1318C62.3633 14.1318 63.5586 14.374 64.5977 14.8584C65.6445 15.335 66.4961 15.9912 67.1523 16.8271C67.8086 17.6631 68.2266 18.6201 68.4062 19.6982L68.4414 19.8623H64.8906L64.8555 19.7334C64.582 18.9131 64.1133 18.2764 63.4492 17.8232C62.793 17.3623 61.9844 17.1318 61.0234 17.1318C60.0938 17.1318 59.2969 17.3584 58.6328 17.8115C57.9688 18.2568 57.457 18.9053 57.0977 19.7568C56.7383 20.6006 56.5586 21.6201 56.5586 22.8154V22.8271C56.5586 23.7412 56.6641 24.5615 56.875 25.2881C57.0938 26.0068 57.4023 26.6201 57.8008 27.1279C58.1992 27.6279 58.6797 28.0107 59.2422 28.2764C59.8125 28.542 60.4492 28.6748 61.1523 28.6748C61.918 28.6748 62.5938 28.5342 63.1797 28.2529C63.7734 27.9639 64.2383 27.5576 64.5742 27.0342C64.918 26.5107 65.1055 25.9014 65.1367 25.2061L65.1484 24.9482H61.3164V22.3232H68.5938V24.3037C68.5938 25.4443 68.4219 26.4717 68.0781 27.3857C67.7422 28.292 67.25 29.0654 66.6016 29.7061C65.9531 30.3467 65.1641 30.835 64.2344 31.1709C63.3047 31.5068 62.2539 31.6748 61.082 31.6748ZM70.8203 31.3584V18.7373H74.2422V20.8936H74.3359C74.5234 20.1357 74.8711 19.5459 75.3789 19.124C75.8867 18.7021 76.5156 18.4912 77.2656 18.4912C77.4688 18.4912 77.6602 18.5029 77.8398 18.5264C78.0195 18.5498 78.1758 18.585 78.3086 18.6318V21.6318C78.1445 21.5693 77.9492 21.5225 77.7227 21.4912C77.4961 21.46 77.2578 21.4443 77.0078 21.4443C76.4297 21.4443 75.9336 21.5537 75.5195 21.7725C75.1055 21.9912 74.7891 22.3154 74.5703 22.7451C74.3516 23.167 74.2422 23.6826 74.2422 24.292V31.3584H70.8203ZM83.2891 31.5576C82.4531 31.5576 81.7188 31.3975 81.0859 31.0771C80.4531 30.749 79.957 30.2998 79.5977 29.7295C79.2461 29.1514 79.0703 28.4912 79.0703 27.749V27.7256C79.0703 26.96 79.2617 26.3076 79.6445 25.7686C80.0273 25.2217 80.582 24.792 81.3086 24.4795C82.043 24.1592 82.9336 23.9678 83.9805 23.9053L88.8555 23.6006V25.7217L84.4961 26.0029C83.8242 26.042 83.3125 26.1982 82.9609 26.4717C82.6172 26.7373 82.4453 27.0967 82.4453 27.5498V27.5615C82.4453 28.0303 82.6211 28.3975 82.9727 28.6631C83.332 28.9287 83.8086 29.0615 84.4023 29.0615C84.918 29.0615 85.375 28.96 85.7734 28.7568C86.1797 28.5537 86.5 28.2803 86.7344 27.9365C86.9688 27.585 87.0859 27.1904 87.0859 26.7529V22.8857C87.0859 22.3311 86.9062 21.8936 86.5469 21.5732C86.1953 21.2529 85.6797 21.0928 85 21.0928C84.3672 21.0928 83.8594 21.2217 83.4766 21.4795C83.1016 21.7295 82.8672 22.0537 82.7734 22.4521L82.75 22.5576H79.6094L79.6211 22.417C79.6914 21.6436 79.9531 20.9639 80.4062 20.3779C80.8672 19.7842 81.4961 19.3193 82.293 18.9834C83.0977 18.6396 84.0508 18.4678 85.1523 18.4678C86.2461 18.4678 87.1914 18.6436 87.9883 18.9951C88.7852 19.3467 89.4023 19.8389 89.8398 20.4717C90.2773 21.1045 90.4961 21.8506 90.4961 22.71V31.3584H87.0859V29.5186H86.9922C86.7578 29.9404 86.4531 30.3037 86.0781 30.6084C85.7109 30.9131 85.293 31.1475 84.8242 31.3115C84.3555 31.4756 83.8438 31.5576 83.2891 31.5576ZM92.8984 35.4951V18.7373H96.3203V20.8936H96.4258C96.6523 20.3936 96.9492 19.9639 97.3164 19.6045C97.6914 19.2451 98.125 18.9717 98.6172 18.7842C99.1172 18.5889 99.668 18.4912 100.27 18.4912C101.332 18.4912 102.246 18.7529 103.012 19.2764C103.785 19.792 104.379 20.542 104.793 21.5264C105.207 22.5029 105.414 23.6748 105.414 25.042V25.0537C105.414 26.4209 105.207 27.5928 104.793 28.5693C104.379 29.5459 103.789 30.2959 103.023 30.8193C102.266 31.3428 101.359 31.6045 100.305 31.6045C99.7109 31.6045 99.1602 31.5107 98.6523 31.3232C98.1445 31.1279 97.7031 30.8545 97.3281 30.5029C96.9531 30.1514 96.6484 29.7295 96.4141 29.2373H96.3203V35.4951H92.8984ZM99.1328 28.7686C99.7031 28.7686 100.199 28.6201 100.621 28.3232C101.043 28.0186 101.367 27.5889 101.594 27.0342C101.82 26.4795 101.934 25.8193 101.934 25.0537V25.042C101.934 24.2686 101.816 23.6045 101.582 23.0498C101.355 22.4951 101.031 22.0693 100.609 21.7725C100.195 21.4756 99.7031 21.3271 99.1328 21.3271C98.5703 21.3271 98.0742 21.4795 97.6445 21.7842C97.2227 22.0811 96.8906 22.5068 96.6484 23.0615C96.4141 23.6162 96.2969 24.2764 96.2969 25.042V25.0537C96.2969 25.8193 96.418 26.4795 96.6602 27.0342C96.9023 27.5889 97.2344 28.0186 97.6562 28.3232C98.0781 28.6201 98.5703 28.7686 99.1328 28.7686ZM107.477 31.3584V14.2842H110.898V20.8701H110.992C111.312 20.1045 111.797 19.5146 112.445 19.1006C113.094 18.6787 113.887 18.4678 114.824 18.4678C115.738 18.4678 116.523 18.667 117.18 19.0654C117.836 19.4639 118.34 20.0303 118.691 20.7646C119.043 21.499 119.219 22.374 119.219 23.3896V31.3584H115.797V24.1045C115.797 23.2217 115.59 22.5342 115.176 22.042C114.77 21.5498 114.176 21.3037 113.395 21.3037C112.887 21.3037 112.445 21.4248 112.07 21.667C111.695 21.9014 111.406 22.2295 111.203 22.6514C111 23.0732 110.898 23.5615 110.898 24.1162V31.3584H107.477ZM121.668 31.3584V18.7373H125.09V31.3584H121.668ZM123.379 17.0615C122.863 17.0615 122.426 16.8857 122.066 16.5342C121.715 16.1748 121.539 15.749 121.539 15.2568C121.539 14.7568 121.715 14.3311 122.066 13.9795C122.426 13.6279 122.863 13.4521 123.379 13.4521C123.902 13.4521 124.34 13.6279 124.691 13.9795C125.051 14.3311 125.23 14.7568 125.23 15.2568C125.23 15.749 125.051 16.1748 124.691 16.5342C124.34 16.8857 123.902 17.0615 123.379 17.0615ZM127.34 31.3584V29.4131L133.703 21.4092V21.3154H127.434V18.7373H137.641V20.9053L131.652 28.6865V28.7803H137.781V31.3584H127.34ZM145.504 31.6162C144.23 31.6162 143.125 31.3545 142.188 30.8311C141.25 30.3076 140.527 29.5576 140.02 28.5811C139.512 27.5967 139.258 26.4209 139.258 25.0537V25.0303C139.258 23.6709 139.516 22.5029 140.031 21.5264C140.547 20.542 141.27 19.7881 142.199 19.2646C143.137 18.7334 144.238 18.4678 145.504 18.4678C146.77 18.4678 147.867 18.7334 148.797 19.2646C149.734 19.7881 150.461 20.5381 150.977 21.5146C151.492 22.4912 151.75 23.6631 151.75 25.0303V25.0537C151.75 26.4287 151.496 27.6045 150.988 28.5811C150.48 29.5576 149.758 30.3076 148.82 30.8311C147.891 31.3545 146.785 31.6162 145.504 31.6162ZM145.516 28.9326C146.086 28.9326 146.574 28.7803 146.98 28.4756C147.395 28.1709 147.711 27.7295 147.93 27.1514C148.156 26.5732 148.27 25.874 148.27 25.0537V25.0303C148.27 24.21 148.156 23.5107 147.93 22.9326C147.703 22.3545 147.383 21.9131 146.969 21.6084C146.555 21.3037 146.066 21.1514 145.504 21.1514C144.949 21.1514 144.461 21.3076 144.039 21.6201C143.625 21.9248 143.305 22.3662 143.078 22.9443C142.852 23.5146 142.738 24.21 142.738 25.0303V25.0537C142.738 25.874 142.852 26.5732 143.078 27.1514C143.305 27.7295 143.625 28.1709 144.039 28.4756C144.453 28.7803 144.945 28.9326 145.516 28.9326Z" fill="black"/>
</svg>
